<svg xmlns="http://www.w3.org/2000/svg" viewBox="0 0 128 128"><path fill="#F75252" d="M6.188 1.1v22.083H.143V1.1h6.045zM21.639 11.322L15.533 1.1h-6.35v22.083h5.739V11.709l.092.002 6.93 11.472h5.554V1.1H21.73v10.222h-.091M42.541 12.156c0 5.574-1.617 5.929-3.876 5.929h-2.107V6.465h1.861c2.566 0 4.122.148 4.122 5.69zM30.515 1.1v22.083h7.6c7.173 0 10.561-1.759 10.561-11.056 0-9.119-3.448-11.027-10.652-11.027h-7.51zM50.841 1.1h6.044v22.083H50.84V1.1zM74.92 6.494V1.1H59.902v22.083H74.92v-5.245h-9.096v-3.31h5.974l.73-5.242h-6.704V6.494h9.096M85.31 14.66h3.9v.387c0 2.44.078 3.516-2.9 3.516-2.777 0-3.725-1.251-3.725-6.228 0-5.185 1.587-5.811 3.969-5.811 1.77 0 3.022.446 4.06 1.014L93.85 2.62C92.139 1.546 89.636.832 86.828.832c-7.813 0-10.317 3.666-10.317 11.324 0 6.675 1.832 11.295 9.249 11.295 1.314 0 2.443-.088 3.416-.268h5.558V9.862h-8.757l-.667 4.799M106.82 18.235c-3.327 0-3.785-2.236-3.785-5.87 0-3.606.458-5.841 3.785-5.841 3.297 0 3.755 2.235 3.755 5.84 0 3.635-.458 5.871-3.755 5.871zm0-17.403c-8.424 0-9.92 5.393-9.92 11.324 0 5.9 1.496 11.295 9.92 11.295 8.395 0 9.89-5.394 9.89-11.295 0-5.931-1.466-11.324-9.89-11.324zM127.675 14.66h3.9v.387c0 2.44.077 3.516-2.9 3.516-2.778 0-3.725-1.251-3.725-6.228 0-5.185 1.587-5.811 3.969-5.811 1.769 0 3.022.446 4.06 1.014l3.235-4.918c-1.71-1.074-4.213-1.788-7.02-1.788-7.814 0-10.318 3.666-10.318 11.324 0 6.675 1.831 11.295 9.249 11.295 1.314 0 2.443-.088 3.416-.268h5.558V9.862h-8.757l-.667 4.799M149.186 18.235c-3.327 0-3.786-2.236-3.786-5.87 0-3.606.459-5.841 3.786-5.841 3.294 0 3.754 2.235 3.754 5.84 0 3.635-.46 5.871-3.754 5.871zm0-17.403c-8.425 0-9.922 5.393-9.922 11.324 0 5.9 1.497 11.295 9.922 11.295 8.394 0 9.889-5.394 9.889-11.295 0-5.931-1.465-11.324-9.889-11.324z"/></svg>
